<svg xmlns="http://www.w3.org/2000/svg" viewBox="0 0 112 64" width="112" height="64" shape-rendering="crispEdges">
<g>
<rect x="32" y="0" width="8" height="8" fill="#1e40af"/>
<rect x="40" y="0" width="8" height="8" fill="#1e40af"/>
<rect x="48" y="0" width="8" height="8" fill="#1e40af"/>
<rect x="56" y="0" width="8" height="8" fill="#1e40af"/>
<rect x="16" y="8" width="8" height="8" fill="#1e40af"/>
<rect x="24" y="8" width="8" height="8" fill="#1e40af"/>
<rect x="32" y="8" width="8" height="8" fill="#1e40af"/>
<rect x="40" y="8" width="8" height="8" fill="#1e40af"/>
<rect x="48" y="8" width="8" height="8" fill="#1e40af"/>
<rect x="56" y="8" width="8" height="8" fill="#1e40af"/>
<rect x="64" y="8" width="8" height="8" fill="#1e40af"/>
<rect x="72" y="8" width="8" height="8" fill="#1e40af"/>
<rect x="104" y="8" width="8" height="8" fill="#1d4ed8"/>
<rect x="8" y="16" width="8" height="8" fill="#1e40af"/>
<rect x="16" y="16" width="8" height="8" fill="#1e40af"/>
<rect x="24" y="16" width="8" height="8" fill="#ffffff"/>
<rect x="32" y="16" width="8" height="8" fill="#1e40af"/>
<rect x="40" y="16" width="8" height="8" fill="#1e40af"/>
<rect x="48" y="16" width="8" height="8" fill="#1e40af"/>
<rect x="56" y="16" width="8" height="8" fill="#1e40af"/>
<rect x="64" y="16" width="8" height="8" fill="#1e40af"/>
<rect x="72" y="16" width="8" height="8" fill="#1e40af"/>
<rect x="80" y="16" width="8" height="8" fill="#1e40af"/>
<rect x="96" y="16" width="8" height="8" fill="#1d4ed8"/>
<rect x="104" y="16" width="8" height="8" fill="#1d4ed8"/>
<rect x="0" y="24" width="8" height="8" fill="#1e40af"/>
<rect x="8" y="24" width="8" height="8" fill="#1e40af"/>
<rect x="16" y="24" width="8" height="8" fill="#1e40af"/>
<rect x="24" y="24" width="8" height="8" fill="#1e40af"/>
<rect x="32" y="24" width="8" height="8" fill="#1e40af"/>
<rect x="40" y="24" width="8" height="8" fill="#1e40af"/>
<rect x="48" y="24" width="8" height="8" fill="#1e40af"/>
<rect x="56" y="24" width="8" height="8" fill="#1e40af"/>
<rect x="64" y="24" width="8" height="8" fill="#1e40af"/>
<rect x="72" y="24" width="8" height="8" fill="#1e40af"/>
<rect x="80" y="24" width="8" height="8" fill="#1e40af"/>
<rect x="88" y="24" width="8" height="8" fill="#1d4ed8"/>
<rect x="96" y="24" width="8" height="8" fill="#1d4ed8"/>
<rect x="104" y="24" width="8" height="8" fill="#1d4ed8"/>
<rect x="0" y="32" width="8" height="8" fill="#93c5fd"/>
<rect x="8" y="32" width="8" height="8" fill="#93c5fd"/>
<rect x="16" y="32" width="8" height="8" fill="#93c5fd"/>
<rect x="24" y="32" width="8" height="8" fill="#93c5fd"/>
<rect x="32" y="32" width="8" height="8" fill="#93c5fd"/>
<rect x="40" y="32" width="8" height="8" fill="#93c5fd"/>
<rect x="48" y="32" width="8" height="8" fill="#93c5fd"/>
<rect x="56" y="32" width="8" height="8" fill="#93c5fd"/>
<rect x="64" y="32" width="8" height="8" fill="#93c5fd"/>
<rect x="72" y="32" width="8" height="8" fill="#93c5fd"/>
<rect x="80" y="32" width="8" height="8" fill="#93c5fd"/>
<rect x="88" y="32" width="8" height="8" fill="#1d4ed8"/>
<rect x="96" y="32" width="8" height="8" fill="#1d4ed8"/>
<rect x="104" y="32" width="8" height="8" fill="#1d4ed8"/>
<rect x="8" y="40" width="8" height="8" fill="#93c5fd"/>
<rect x="16" y="40" width="8" height="8" fill="#93c5fd"/>
<rect x="24" y="40" width="8" height="8" fill="#93c5fd"/>
<rect x="32" y="40" width="8" height="8" fill="#93c5fd"/>
<rect x="40" y="40" width="8" height="8" fill="#93c5fd"/>
<rect x="48" y="40" width="8" height="8" fill="#93c5fd"/>
<rect x="56" y="40" width="8" height="8" fill="#93c5fd"/>
<rect x="64" y="40" width="8" height="8" fill="#93c5fd"/>
<rect x="72" y="40" width="8" height="8" fill="#93c5fd"/>
<rect x="80" y="40" width="8" height="8" fill="#93c5fd"/>
<rect x="96" y="40" width="8" height="8" fill="#1d4ed8"/>
<rect x="104" y="40" width="8" height="8" fill="#1d4ed8"/>
<rect x="16" y="48" width="8" height="8" fill="#93c5fd"/>
<rect x="24" y="48" width="8" height="8" fill="#93c5fd"/>
<rect x="32" y="48" width="8" height="8" fill="#93c5fd"/>
<rect x="40" y="48" width="8" height="8" fill="#93c5fd"/>
<rect x="48" y="48" width="8" height="8" fill="#93c5fd"/>
<rect x="56" y="48" width="8" height="8" fill="#93c5fd"/>
<rect x="64" y="48" width="8" height="8" fill="#93c5fd"/>
<rect x="72" y="48" width="8" height="8" fill="#93c5fd"/>
<rect x="104" y="48" width="8" height="8" fill="#1d4ed8"/>
<rect x="32" y="56" width="8" height="8" fill="#93c5fd"/>
<rect x="40" y="56" width="8" height="8" fill="#93c5fd"/>
<rect x="48" y="56" width="8" height="8" fill="#93c5fd"/>
<rect x="56" y="56" width="8" height="8" fill="#93c5fd"/>
<animateTransform attributeName="transform" type="translate" values="0 0; 0 -3; 0 0" dur="2s" repeatCount="indefinite"/>
</g>
</svg>